<svg xmlns="http://www.w3.org/2000/svg" xmlns:xlink="http://www.w3.org/1999/xlink" version="1.1" width="1080" height="1080" viewBox="0 0 1080 1080" xml:space="preserve">
<desc>Created with Fabric.js 5.2.4</desc>
<defs>
</defs>
<g transform="matrix(1 0 0 1 540 540)" id="4056542d-da08-494d-95ed-8a1854594204">
<rect style="stroke: none; stroke-width: 1; stroke-dasharray: none; stroke-linecap: butt; stroke-dashoffset: 0; stroke-linejoin: miter; stroke-miterlimit: 4; fill: currentColor; fill-rule: nonzero; opacity: 1; visibility: hidden;" vector-effect="non-scaling-stroke" x="-540" y="-540" rx="0" ry="0" width="1080" height="1080"/>
</g>
<g transform="matrix(1 0 0 1 540 540)" id="94a2a827-26cf-4c56-9eaa-5cf74d85ca82">
</g>
<g transform="matrix(1.8 0 0 1.8 540 540)">
<path style="stroke: none; stroke-width: 1; stroke-dasharray: none; stroke-linecap: butt; stroke-dashoffset: 0; stroke-linejoin: miter; stroke-miterlimit: 4; fill: currentColor; fill-rule: nonzero; opacity: 1;" transform=" translate(-299.94, -208.86)" d="M 138.136719 256.640625 C 126.535156 276.464844 115.679688 295.007812 104.855469 313.570312 C 95.492188 329.585938 86.21875 345.679688 76.796875 361.652344 C 65.300781 381.125 43.617188 387.441406 24.832031 376.9375 C 6.542969 366.71875 0.425781 344.003906 11.613281 324.441406 C 38.351562 277.710938 65.527344 231.230469 92.523438 184.65625 C 114.917969 146.011719 137.316406 107.355469 159.742188 68.714844 C 180.554688 32.839844 224.605469 24.332031 255.617188 50.578125 C 261.097656 55.222656 265.773438 61.253906 269.578125 67.402344 C 322.105469 152.390625 374.4375 237.503906 426.78125 322.597656 C 439.128906 342.679688 433.148438 367.054688 413.382812 377.851562 C 395.417969 387.65625 373.796875 381.929688 362.441406 363.722656 C 343.269531 333.011719 324.496094 302.058594 305.558594 271.210938 C 276.78125 224.347656 247.988281 177.484375 219.183594 130.648438 C 218.148438 128.960938 216.882812 127.390625 215.085938 124.878906 C 207.308594 138.125 200.988281 151.449219 192.296875 162.988281 C 182.246094 176.339844 183.707031 186.769531 192.433594 200.597656 C 217.84375 240.882812 241.488281 282.3125 265.820312 323.265625 C 279.535156 346.363281 269.246094 374.242188 244.578125 380.773438 C 227.054688 385.417969 211.054688 378.476562 200.929688 361.527344 C 181.757812 329.480469 162.710938 297.367188 143.605469 265.289062 C 142.113281 262.792969 140.484375 260.355469 138.136719 256.640625 Z M 574.179688 377.742188 C 594.019531 367.117188 599.742188 343.347656 587.351562 323.207031 C 531.867188 233.027344 476.265625 142.921875 420.617188 52.847656 C 409.167969 34.304688 386.054688 28.808594 367.800781 39.921875 C 350.105469 50.703125 344.730469 74.347656 356.226562 93.058594 C 411.648438 183.269531 467.207031 273.402344 522.761719 363.539062 C 530.300781 375.765625 541.1875 382.386719 556.136719 383.515625 C 562.199219 381.65625 568.714844 380.667969 574.179688 377.742188 Z M 574.179688 377.742188" stroke-linecap="round"/>
</g>
</svg>